<svg width="250" height="49" viewBox="0 0 250 49" fill="none" xmlns="http://www.w3.org/2000/svg">
<path d="M85.6991 36.5267C83.6229 36.5267 81.7919 36.0653 80.206 35.1426C78.6201 34.191 77.3802 32.879 76.4863 31.2066C75.5924 29.5342 75.1455 27.5878 75.1455 25.3675C75.1455 23.1184 75.578 21.1432 76.443 19.442C77.3369 17.7407 78.5768 16.4143 80.1627 15.4627C81.7775 14.5112 83.6374 14.0354 85.7423 14.0354C87.8184 14.0354 89.6062 14.5112 91.1056 15.4627C92.605 16.3855 93.7584 17.6254 94.5658 19.1824C95.402 20.7395 95.8201 22.4552 95.8201 24.3295C95.8201 24.6178 95.8201 24.935 95.8201 25.281C95.8201 25.5982 95.8057 25.9587 95.7769 26.3623H79.6437C79.7879 28.352 80.4367 29.8658 81.5901 30.9038C82.7435 31.9131 84.0987 32.4177 85.6558 32.4177C87.011 32.4177 88.0779 32.1437 88.8565 31.5959C89.6639 31.0192 90.255 30.2406 90.6298 29.2603H95.2578C94.7388 31.3075 93.6575 33.0376 92.0139 34.4505C90.3703 35.8346 88.2654 36.5267 85.6991 36.5267ZM85.6991 18.0146C84.2861 18.0146 83.0318 18.4472 81.9361 19.3122C80.8404 20.1484 80.1339 21.3306 79.8167 22.8589H91.2354C91.12 21.4172 90.5577 20.2493 89.5485 19.3555C88.5393 18.4616 87.2561 18.0146 85.6991 18.0146Z" fill="white"/>
<path d="M108.606 36.0076L99.3067 14.5544H104.497L111.374 31.1634L118.294 14.5544H123.441L114.099 36.0076H108.606Z" fill="white"/>
<path d="M137.568 36.5267C135.492 36.5267 133.661 36.0653 132.075 35.1426C130.489 34.191 129.249 32.879 128.355 31.2066C127.461 29.5342 127.015 27.5878 127.015 25.3675C127.015 23.1184 127.447 21.1432 128.312 19.442C129.206 17.7407 130.446 16.4143 132.032 15.4627C133.647 14.5112 135.506 14.0354 137.611 14.0354C139.687 14.0354 141.475 14.5112 142.975 15.4627C144.474 16.3855 145.627 17.6254 146.435 19.1824C147.271 20.7395 147.689 22.4552 147.689 24.3295C147.689 24.6178 147.689 24.935 147.689 25.281C147.689 25.5982 147.675 25.9587 147.646 26.3623H131.513C131.657 28.352 132.306 29.8658 133.459 30.9038C134.613 31.9131 135.968 32.4177 137.525 32.4177C138.88 32.4177 139.947 32.1437 140.726 31.5959C141.533 31.0192 142.124 30.2406 142.499 29.2603H147.127C146.608 31.3075 145.527 33.0376 143.883 34.4505C142.239 35.8346 140.134 36.5267 137.568 36.5267ZM137.568 18.0146C136.155 18.0146 134.901 18.4472 133.805 19.3122C132.709 20.1484 132.003 21.3306 131.686 22.8589H143.104C142.989 21.4172 142.427 20.2493 141.418 19.3555C140.408 18.4616 139.125 18.0146 137.568 18.0146Z" fill="white"/>
<path d="M153.598 36.0076V32.0284H158.831V19.961C158.831 19.0094 158.37 18.5337 157.447 18.5337H154.03V14.5544H159.177C160.36 14.5544 161.326 14.9005 162.075 15.5925C162.825 16.2557 163.2 17.1928 163.2 18.4039V18.9229H163.416C163.733 17.3082 164.411 16.0971 165.449 15.2897C166.516 14.4535 168.059 14.0354 170.077 14.0354H173.407V18.8797H168.736C167.035 18.8797 165.723 19.4708 164.8 20.653C163.878 21.8353 163.416 23.2482 163.416 24.8918V32.0284H170.077V36.0076H153.598Z" fill="white"/>
<path d="M189.351 36.5267C186.525 36.5267 184.276 35.8634 182.603 34.537C180.931 33.2106 179.979 31.4517 179.749 29.2603H184.463C184.636 30.2695 185.141 31.0913 185.977 31.7256C186.842 32.36 187.981 32.6772 189.394 32.6772C190.749 32.6772 191.787 32.4033 192.508 31.8554C193.258 31.2787 193.633 30.6155 193.633 29.8658C193.633 28.7701 193.186 28.0204 192.292 27.6167C191.427 27.213 190.144 26.9102 188.442 26.7084C186.972 26.5354 185.631 26.2038 184.42 25.7136C183.238 25.1945 182.301 24.5025 181.608 23.6374C180.916 22.7436 180.57 21.6334 180.57 20.307C180.57 18.4327 181.306 16.9189 182.776 15.7655C184.247 14.6121 186.294 14.0354 188.918 14.0354C191.542 14.0354 193.575 14.6265 195.017 15.8088C196.458 16.991 197.295 18.6058 197.525 20.653H193.114C192.998 19.788 192.551 19.1104 191.773 18.6202C190.994 18.1011 190.028 17.8416 188.875 17.8416C187.693 17.8416 186.756 18.0723 186.064 18.5337C185.371 18.9662 185.025 19.5429 185.025 20.2638C185.025 21.8208 186.698 22.7724 190.043 23.1184C191.629 23.2914 193.042 23.5942 194.281 24.0267C195.521 24.4304 196.502 25.0792 197.223 25.9731C197.943 26.8381 198.304 28.0636 198.304 29.6495C198.333 30.9471 197.958 32.1149 197.179 33.153C196.43 34.191 195.377 35.0128 194.022 35.6184C192.696 36.2239 191.138 36.5267 189.351 36.5267Z" fill="white"/>
<path d="M215.112 36.5267C213.065 36.5267 211.234 36.0653 209.619 35.1426C208.004 34.2199 206.736 32.9223 205.813 31.2499C204.89 29.5486 204.429 27.559 204.429 25.281C204.429 23.0031 204.89 21.0279 205.813 19.3555C206.736 17.6542 208.004 16.3422 209.619 15.4195C211.234 14.4968 213.079 14.0354 215.155 14.0354C217.232 14.0354 219.063 14.4968 220.649 15.4195C222.263 16.3422 223.518 17.6542 224.411 19.3555C225.334 21.0279 225.796 23.0031 225.796 25.281C225.796 27.559 225.334 29.5486 224.411 31.2499C223.489 32.9223 222.22 34.2199 220.605 35.1426C219.019 36.0653 217.188 36.5267 215.112 36.5267ZM215.112 32.1582C216.208 32.1582 217.217 31.9131 218.14 31.4229C219.063 30.9327 219.798 30.183 220.346 29.1737C220.922 28.1357 221.211 26.8381 221.211 25.281C221.211 23.6951 220.922 22.3975 220.346 21.3883C219.798 20.3791 219.063 19.6294 218.14 19.1392C217.246 18.649 216.251 18.4039 215.155 18.4039C214.06 18.4039 213.051 18.649 212.128 19.1392C211.205 19.6294 210.455 20.3791 209.879 21.3883C209.331 22.3975 209.057 23.6951 209.057 25.281C209.057 27.6455 209.648 29.39 210.83 30.5146C212.041 31.6103 213.469 32.1582 215.112 32.1582Z" fill="white"/>
<path d="M231.012 36.0076V32.0284H238.192V10.2725C238.192 9.3209 237.731 8.84513 236.808 8.84513H231.618V4.86591H237.63C239.302 4.86591 240.571 5.31285 241.436 6.20673C242.33 7.07178 242.777 8.34052 242.777 10.0129V32.0284H250V36.0076H231.012Z" fill="white"/>
<path fill-rule="evenodd" clip-rule="evenodd" d="M43.0738 2.70328L53.6977 21.0855C54.2877 22.1118 54.5965 23.2756 54.5927 24.4594C54.5889 25.6432 54.2727 26.805 53.6761 27.8275L43.0522 46.2098C42.5786 47.0301 41.8978 47.7115 41.078 48.186C40.2582 48.6604 39.3281 48.9111 38.3809 48.9131H17.1602C15.9824 48.9108 14.8258 48.5996 13.8059 48.0104C12.786 47.4213 11.9385 46.5748 11.3482 45.5556L0.72434 27.1463C0.249816 26.3244 0 25.3921 0 24.443C0 23.494 0.249816 22.5616 0.72434 21.7397L11.3482 3.35748C11.9381 2.33905 12.7847 1.49309 13.8035 0.903966C14.8224 0.314847 15.9779 0.00316487 17.1548 1.05312e-05H38.3809C39.3318 -0.00186596 40.2663 0.24706 41.0903 0.721678C41.9142 1.1963 42.5984 1.87982 43.0738 2.70328ZM16.3285 31.3102C16.0155 31.3102 15.7204 31.4378 15.5057 31.6567L9.89798 37.3743C9.53128 37.7482 9.79065 38.3865 10.3094 38.3865H38.6968C39.0099 38.3865 39.305 38.2588 39.5197 38.04L45.1274 32.3224C45.4941 31.9485 45.2347 31.3102 44.716 31.3102H16.3285ZM15.5057 10.619C15.7293 10.4001 16.0244 10.2725 16.3285 10.2725H44.716C45.2347 10.2725 45.4941 10.9108 45.1274 11.2847L39.5197 17.0023C39.305 17.2211 39.0099 17.3488 38.6968 17.3488H10.3094C9.79065 17.3488 9.53128 16.7105 9.89798 16.3366L15.5057 10.619ZM38.6968 20.7913C39.0099 20.7913 39.305 20.9156 39.5197 21.1285L45.1274 26.6916C45.4941 27.0553 45.2347 27.6764 44.716 27.6764H16.3285C16.0155 27.6764 15.7204 27.5522 15.5057 27.3393L9.89798 21.7762C9.53128 21.4124 9.79065 20.7913 10.3094 20.7913H38.6968Z" fill="white"/>
</svg>
