<svg width="327" height="303" viewBox="0 0 327 303" fill="none" xmlns="http://www.w3.org/2000/svg">
<g clip-path="url(#clip0_1809_118058)">
<path d="M310.924 259.827C312.21 244.243 301.239 229.992 285.835 227.288C272.829 225.005 260.543 231.236 254.296 241.732C251.098 239.932 247.599 238.571 243.893 237.7C245.444 235.369 246.764 232.861 247.799 230.2C264.252 225.838 276.909 211.145 277.429 192.717C277.695 183.408 274.631 174.619 269.276 167.594C274.909 165.744 279.243 160.779 279.95 154.509C280.558 149.123 278.351 144.073 274.511 140.822C274.649 140.224 274.768 139.614 274.839 138.988C275.807 130.412 269.645 122.682 261.069 121.714C252.494 120.746 245.246 126.56 243.922 134.723C243.912 134.722 243.892 134.72 243.882 134.719C235.307 133.751 227.577 139.913 226.609 148.488C226.421 150.158 226.507 151.798 226.825 153.353C222.989 154.44 219.371 156.085 216.072 158.208C213.112 156.354 209.699 155.114 205.983 154.694C192.757 153.202 180.815 162.712 179.321 175.948C178.809 180.49 179.592 184.875 181.38 188.74C175.862 194.739 172.12 202.478 171.137 211.193C170.609 215.873 170.918 220.447 171.937 224.788C170.09 224.298 168.178 223.942 166.221 223.721C146.884 221.538 129.23 233.594 123.703 251.538C119.157 247.502 113.377 244.767 106.878 244.034C104.662 243.783 102.468 243.787 100.331 243.999C100.357 243.77 100.404 243.534 100.429 243.306C102.319 226.562 90.2772 211.456 73.5335 209.566C62.8612 208.362 52.8683 212.819 46.5217 220.546C43.6071 219.443 40.4631 218.766 37.1604 218.604C21.508 217.834 7.6389 229.351 5.48516 244.868C3.11672 261.93 15.2693 277.481 32.2813 279.401C42.9536 280.605 52.9465 276.148 59.2931 268.421C61.6195 269.297 64.0966 269.909 66.6901 270.202C68.906 270.452 71.1003 270.448 73.2375 270.236C73.2117 270.465 73.1649 270.701 73.1392 270.929C71.2494 287.673 83.2913 302.779 100.035 304.669C113.042 306.137 125.056 299.2 130.657 288.179C137.007 296.121 146.386 301.648 157.287 302.878C173.136 304.667 187.862 296.889 195.701 284.138C198.95 300.737 212.624 314.044 230.321 316.042C250.116 318.276 268.151 305.599 273.215 286.949C274.469 287.251 275.759 287.498 277.081 287.647C294.133 289.571 309.484 277.044 310.916 259.816L310.924 259.827Z" fill="url(#paint0_linear_1809_118058)"/>
<path d="M292.562 102.095L276.989 141.585C274.355 148.265 267.9 151.986 262.588 149.891C257.267 147.793 255.095 140.68 257.733 133.991L273.306 94.5012" fill="white"/>
<path d="M292.562 102.095L276.989 141.585C274.355 148.265 267.9 151.986 262.588 149.891C257.267 147.793 255.095 140.68 257.733 133.991L273.306 94.5012" stroke="#7877DC" stroke-width="2" stroke-miterlimit="10"/>
<path d="M305.183 73.5554L310.104 75.4961C311.816 76.1711 312.659 78.0945 311.991 79.7876L309.071 87.1926" stroke="#7877DC" stroke-width="2" stroke-miterlimit="10"/>
<path d="M251.803 64.6087L254.723 57.2037C255.391 55.5106 257.32 54.6804 259.031 55.3554L263.58 57.1494" stroke="#7877DC" stroke-width="2" stroke-miterlimit="10"/>
<path d="M254.039 86.9038L238.466 126.394C235.832 133.074 238.01 140.199 243.322 142.294C248.643 144.392 255.085 140.677 257.723 133.988L275.38 89.2138" fill="white"/>
<path d="M254.039 86.9038L238.466 126.394C235.832 133.074 238.01 140.199 243.322 142.294C248.643 144.392 255.085 140.677 257.723 133.988L275.38 89.2138" stroke="#7877DC" stroke-width="2" stroke-miterlimit="10"/>
<path d="M258.119 76.559L246.589 105.798L241.872 103.938C236.914 101.982 235.045 94.946 237.701 88.2108L245.042 69.596C246.484 65.94 249.84 63.8345 252.528 64.8947L260.157 67.903" stroke="#7877DC" stroke-width="2" stroke-miterlimit="10"/>
<path d="M308.419 86.9355L303.582 85.0278L299.758 83.52" stroke="#7877DC" stroke-width="2" stroke-miterlimit="10"/>
<path d="M296.855 91.2111L285.111 120.989L289.679 122.791C294.489 124.687 300.536 120.773 303.192 114.038L310.533 95.4228C311.975 91.7668 311.024 87.9628 308.419 86.9356" stroke="#7877DC" stroke-width="2" stroke-miterlimit="10"/>
<path d="M274.871 89.0343C286.441 93.5971 299.408 88.1996 303.833 76.9787C308.258 65.7578 302.465 52.9626 290.895 48.3998C279.325 43.837 266.358 49.2345 261.933 60.4554C257.508 71.6763 263.301 84.4715 274.871 89.0343Z" stroke="#7877DC" stroke-width="2" stroke-miterlimit="10"/>
<path d="M276.287 85.1967C287.251 89.5203 298.197 87.8067 300.736 81.369C303.275 74.9314 296.445 66.2076 285.481 61.8839C274.517 57.5602 263.57 59.2739 261.032 65.7115C258.493 72.1492 265.323 80.873 276.287 85.1967Z" fill="url(#paint1_linear_1809_118058)" stroke="#7877DC" stroke-width="2" stroke-miterlimit="10"/>
<path d="M262.326 96.094L279.471 102.855" stroke="#7877DC" stroke-width="2" stroke-miterlimit="10"/>
<path d="M257.723 133.988L276.989 141.586" stroke="#7877DC" stroke-width="2" stroke-miterlimit="10"/>
<path d="M238.466 126.394L257.723 133.988" stroke="#7877DC" stroke-width="2" stroke-miterlimit="10"/>
<path d="M250.6 33.3934L254.531 34.9547C254.575 34.9719 254.618 34.9863 254.663 34.9984C255.24 35.1538 255.855 34.8555 256.08 34.2865C256.323 33.6744 256.024 32.9804 255.412 32.7374L251.481 31.1761C250.87 30.9384 250.175 31.2321 249.932 31.8447C249.689 32.4569 249.988 33.1508 250.6 33.3939L250.6 33.3934Z" fill="#1D253B"/>
<path d="M258.813 24.5281L260.771 26.7306C260.931 26.9112 261.134 27.0317 261.351 27.0902C261.726 27.1911 262.143 27.1076 262.455 26.8298C262.948 26.392 262.992 25.638 262.554 25.1455L260.596 22.943C260.158 22.451 259.405 22.4061 258.912 22.8438C258.419 23.2816 258.375 24.0356 258.813 24.5281Z" fill="#1D253B"/>
<path d="M316.333 47.1593C316.48 47.5153 316.78 47.7619 317.126 47.855C317.371 47.9211 317.639 47.9098 317.892 47.805L321.136 46.4615C321.745 46.2093 322.034 45.5118 321.782 44.903C321.529 44.2942 320.832 44.0058 320.223 44.2573L316.979 45.6008C316.37 45.853 316.081 46.5505 316.333 47.1593Z" fill="#1D253B"/>
<path d="M316.724 42.0151C317.044 42.1014 317.4 42.0544 317.697 41.8551L320.555 39.9467C321.103 39.5809 321.251 38.8405 320.885 38.2921C320.519 37.7436 319.778 37.5967 319.23 37.9626L316.372 39.8709C315.824 40.2367 315.676 40.9772 316.043 41.5256C316.21 41.776 316.455 41.9425 316.723 42.0149L316.724 42.0151Z" fill="#1D253B"/>
<path d="M294.665 26.3109C294.762 26.3695 294.865 26.4125 294.97 26.4408C295.471 26.5759 296.021 26.3705 296.302 25.9036L297.515 23.8875C297.855 23.3229 297.672 22.5901 297.108 22.2502C296.546 21.9109 295.81 22.0927 295.471 22.6574L294.258 24.6735C293.918 25.2381 294.1 25.9709 294.665 26.3109Z" fill="#1D253B"/>
<path d="M279.148 24.911C279.188 25.4295 279.552 25.8452 280.028 25.9734C280.155 26.0076 280.29 26.0214 280.428 26.0109C281.085 25.9612 281.577 25.3888 281.528 24.7313L281.308 21.8151C281.258 21.1587 280.687 20.6658 280.029 20.7153C279.372 20.765 278.879 21.3373 278.929 21.9948L279.148 24.911Z" fill="#1D253B"/>
<path d="M157 33.6194C147.291 40.4302 146.401 41.9533 143.123 53C144.925 41.9533 144.709 41.1294 135 39.5821C144.709 39.6284 144.765 39.0201 141.769 28C146.242 39.0201 147.291 38.9292 156.999 33.6194H157Z" stroke="#232325" stroke-width="2" stroke-miterlimit="10"/>
<path d="M135 159.372C109.456 167.527 108.869 169.139 113.867 189C105.082 169.139 102.767 169.199 78 173.62C102.767 165.471 102.131 163.861 88.7021 144C105.917 163.861 109.456 163.801 135 159.374V159.372Z" stroke="#232325" stroke-width="2" stroke-miterlimit="10"/>
<path d="M86.2368 66.3271C13.1038 40.2698 -47.6529 118.291 -33.4992 126.975C-19.3455 135.658 29.3086 29.1524 -71.3659 -10.4952" stroke="#232325" stroke-width="2"/>
<path d="M87.3606 66.7697C85.4251 65.9432 81.7945 65.7182 78.3095 70.3592" stroke="black" stroke-width="2"/>
<path d="M83.2273 58.5226C82.6791 60.5635 82.904 64.1722 87.713 66.8307" stroke="black" stroke-width="2"/>
</g>
<defs>
<linearGradient id="paint0_linear_1809_118058" x1="179" y1="127" x2="157.668" y2="333.449" gradientUnits="userSpaceOnUse">
<stop stop-color="#BBA2FF"/>
<stop offset="0.765051" stop-color="#8EF0FF" stop-opacity="0"/>
<stop offset="1" stop-color="#5394F5" stop-opacity="0"/>
</linearGradient>
<linearGradient id="paint1_linear_1809_118058" x1="270.842" y1="56.6163" x2="289.75" y2="87.7212" gradientUnits="userSpaceOnUse">
<stop stop-color="#BBA2FF"/>
<stop offset="1" stop-color="#8EF0FF"/>
</linearGradient>
<clipPath id="clip0_1809_118058">
<rect width="327" height="303" fill="white"/>
</clipPath>
</defs>
</svg>
